<svg width="32" height="32" viewBox="0 0 32 32" fill="none" xmlns="http://www.w3.org/2000/svg">
<path d="M14.26 11.9162V13.7522H12.916V15.9962H14.26V22.6668H17.0227V15.9962H18.876C18.876 15.9962 19.0507 14.9202 19.1347 13.7428H17.0333V12.2095C17.0333 11.9788 17.3347 11.6708 17.6333 11.6708H19.1373V9.3335H17.0907C14.192 9.3335 14.26 11.5802 14.26 11.9162Z" fill="#201A00"/>
<path d="M7.99999 5.33317C7.29275 5.33317 6.61447 5.61412 6.11437 6.11422C5.61427 6.61432 5.33332 7.29259 5.33332 7.99984V23.9998C5.33332 24.7071 5.61427 25.3854 6.11437 25.8855C6.61447 26.3856 7.29275 26.6665 7.99999 26.6665H24C24.7072 26.6665 25.3855 26.3856 25.8856 25.8855C26.3857 25.3854 26.6667 24.7071 26.6667 23.9998V7.99984C26.6667 7.29259 26.3857 6.61432 25.8856 6.11422C25.3855 5.61412 24.7072 5.33317 24 5.33317H7.99999ZM7.99999 2.6665H24C25.4145 2.6665 26.771 3.22841 27.7712 4.2286C28.7714 5.2288 29.3333 6.58535 29.3333 7.99984V23.9998C29.3333 25.4143 28.7714 26.7709 27.7712 27.7711C26.771 28.7713 25.4145 29.3332 24 29.3332H7.99999C6.5855 29.3332 5.22895 28.7713 4.22875 27.7711C3.22856 26.7709 2.66666 25.4143 2.66666 23.9998V7.99984C2.66666 6.58535 3.22856 5.2288 4.22875 4.2286C5.22895 3.22841 6.5855 2.6665 7.99999 2.6665Z" fill="#201A00"/>
</svg>
