<svg width="21" height="21" viewBox="0 0 21 21" fill="none" xmlns="http://www.w3.org/2000/svg">
<path d="M18.1219 10.6099H17.0508C17.0508 7.11465 14.2081 4.27252 10.7147 4.27252L10.7141 3.20278C14.7995 3.20085 18.1219 6.52449 18.1219 10.6099ZM10.7141 5.05039L10.7134 6.12012C13.1904 6.12012 15.2026 8.13424 15.2013 10.6093L16.2723 10.6086C16.2723 7.54408 13.7806 5.05039 10.7141 5.05039ZM10.5 0C4.70967 0 0 4.70967 0 10.5006C0 16.2903 4.70967 21 10.5 21C10.8581 21 11.1474 20.7107 11.1474 20.3533C11.1474 19.9939 10.8581 19.704 10.5 19.704C5.4239 19.704 1.29538 15.5742 1.29538 10.5006C1.29538 5.42454 5.4239 1.29538 10.5 1.29538C15.5761 1.29538 19.704 5.42518 19.704 10.5006C19.704 12.6215 18.5751 14.723 16.9596 15.614C16.3726 15.9368 15.7362 16.0968 15.0573 16.1033C15.4649 15.8609 15.8178 15.533 16.0801 15.1203C16.1315 15.0425 16.1997 14.9737 16.2331 14.8895C16.444 14.3823 16.4626 13.8069 16.5899 13.2708C16.7461 12.5868 13.5954 11.2502 13.3216 12.1046C13.2226 12.4209 13.0708 13.4212 12.8722 13.6848C12.6954 13.9201 12.2595 13.8082 11.987 13.5768C11.2689 12.9648 10.4672 12.0654 9.76391 11.3544L9.7652 11.3537C9.7472 11.3351 9.72534 11.3145 9.70605 11.2946C9.68613 11.2759 9.6662 11.2547 9.64627 11.2354V11.2367C8.93525 10.5321 8.03524 9.73241 7.42387 9.01304C7.19243 8.74046 7.08057 8.3046 7.31586 8.12781C7.57944 7.92788 8.57975 7.77873 8.89604 7.67844C9.74848 7.40587 8.41389 4.25323 7.72859 4.41009C7.19372 4.53545 6.61835 4.55602 6.11112 4.7656C6.02498 4.80224 5.95812 4.86846 5.88033 4.91989C4.08094 6.06034 3.84886 8.82982 5.60519 10.8934C6.27441 11.6829 6.97257 12.4466 7.6913 13.1923L7.68744 13.1949C7.70737 13.2148 7.72794 13.2335 7.74852 13.2528C7.7678 13.2727 7.78644 13.2926 7.80509 13.3138L7.80895 13.31C8.55467 14.0287 9.43862 15.0875 10.8748 16.0454C13.8982 18.0647 16.2183 17.5009 17.5851 16.7513C19.9444 15.452 21 12.6768 21 10.5032C21 4.70967 16.2897 0 10.5 0Z" fill="#003B62"/>
</svg>
