<svg width="21" height="21" viewBox="0 0 21 21" fill="none" xmlns="http://www.w3.org/2000/svg">
<path d="M18.6667 3.5H2.33335C2.02393 3.5 1.72719 3.62292 1.5084 3.84171C1.2896 4.0605 1.16669 4.35725 1.16669 4.66667V16.3333C1.16669 16.6428 1.2896 16.9395 1.5084 17.1583C1.72719 17.3771 2.02393 17.5 2.33335 17.5H18.6667C18.9761 17.5 19.2729 17.3771 19.4916 17.1583C19.7104 16.9395 19.8334 16.6428 19.8334 16.3333V4.66667C19.8334 4.35725 19.7104 4.0605 19.4916 3.84171C19.2729 3.62292 18.9761 3.5 18.6667 3.5ZM17.7684 16.3333H3.30169L7.38502 12.11L6.54502 11.2992L2.33335 15.6567V5.55333L9.58419 12.7692C9.80278 12.9865 10.0985 13.1084 10.4067 13.1084C10.7149 13.1084 11.0106 12.9865 11.2292 12.7692L18.6667 5.3725V15.5808L14.3734 11.2875L13.5509 12.11L17.7684 16.3333ZM3.09752 4.66667H17.7217L10.4067 11.9408L3.09752 4.66667Z" fill="#201A00"/>
</svg>
