<svg width="86" height="86" viewBox="0 0 86 86" fill="none" xmlns="http://www.w3.org/2000/svg">
<path d="M63.3412 31.9315C63.3412 31.1977 62.7465 30.6028 62.0127 30.6028C61.2789 30.6028 60.6843 31.1977 60.6843 31.9315C60.6843 35.0674 63.4123 37.6796 66.9907 38.2063V39.4984C66.9907 40.2322 67.5853 40.8272 68.3191 40.8272C69.0529 40.8272 69.6476 40.2322 69.6476 39.4984V38.2063C73.2248 37.6796 75.9517 35.0674 75.9517 31.9315C75.9517 28.7959 73.2248 26.1834 69.6476 25.6568V18.263C71.7473 18.699 73.2948 20.1364 73.2948 21.8422C73.2948 22.576 73.8894 23.171 74.6232 23.171C75.357 23.171 75.9517 22.576 75.9517 21.8422C75.9517 18.7057 73.2248 16.0927 69.6476 15.5657V14.275C69.6476 13.5412 69.0529 12.9463 68.3191 12.9463C67.5853 12.9463 66.9907 13.5412 66.9907 14.275V15.5654C63.4123 16.0921 60.6843 18.7051 60.6843 21.8419C60.6843 24.9776 63.4123 27.59 66.9907 28.1167V35.5087C64.8898 35.0735 63.3412 33.6365 63.3412 31.9315ZM73.2948 31.9315C73.2948 33.6365 71.7473 35.0733 69.6476 35.509V28.354C71.7473 28.7895 73.2948 30.2263 73.2948 31.9315ZM63.3412 21.8422C63.3412 20.1361 64.8898 18.6987 66.9907 18.263V25.4197C64.8898 24.9843 63.3412 23.5472 63.3412 21.8422Z" fill="#FFCC00"/>
<path d="M7.04081 30.1617C7.38069 30.1617 7.72086 30.0318 7.97999 29.7727L9.60823 28.1448V38.2376C9.60823 38.9714 10.2029 39.5663 10.9367 39.5663H29.743C30.4768 39.5663 31.0714 38.9714 31.0714 38.2376V28.1459L32.6982 29.7724C33.2167 30.2913 34.058 30.2913 34.5771 29.7724C35.096 29.2536 35.096 28.4123 34.5769 27.8935L21.279 14.5965C20.7605 14.0777 19.9189 14.0774 19.4003 14.5965L6.10163 27.8935C5.58251 28.4123 5.58251 29.2536 6.10134 29.7724C6.36075 30.0318 6.70063 30.1617 7.04081 30.1617ZM20.3398 17.4149L28.4151 25.489V36.9082H12.2657V25.4879L20.3398 17.4149Z" fill="#201A00"/>
<path d="M84.6716 45.0826H1.32845C0.59465 45.0826 0 45.6776 0 46.4114C0 47.1452 0.59465 47.7401 1.32845 47.7401H40.6994L27.2348 71.0602C26.9975 71.4715 26.9975 71.9778 27.2348 72.3889C27.4721 72.8 27.9108 73.0533 28.3855 73.0533H57.6145C57.6169 73.0536 57.6189 73.0533 57.6203 73.0533C58.3541 73.0533 58.9491 72.4583 58.9491 71.7245C58.9491 71.4404 58.8599 71.1775 58.7083 70.9614L45.3021 47.7398H84.6716C85.4053 47.7398 86 47.1449 86 46.4111C86 45.6776 85.4053 45.0826 84.6716 45.0826ZM30.6871 70.3958L43.001 49.0686L55.3138 70.3958H30.6871Z" fill="#201A00"/>
</svg>
