<svg width="86" height="86" viewBox="0 0 86 86" fill="none" xmlns="http://www.w3.org/2000/svg">
<path d="M18.6329 38.3985V73H67.8101C67.8101 73 67.8101 38.8421 67.8101 40.1729V38.8421M78 49.0451L67.8101 38.8421M8 49.0451L43 14L67.8101 38.8421" stroke="#201A00" stroke-width="2.5" stroke-linecap="round" stroke-linejoin="round"/>
<g clip-path="url(#clip0)">
<path d="M55.2389 40.2766L43.5877 34.0683C43.4149 33.9761 43.2077 33.9774 43.0362 34.0715L31.7074 40.2799C31.5216 40.3818 31.4064 40.5767 31.4064 40.7887V48.8984C31.4132 55.5648 35.3628 61.5957 41.4708 64.2665L43.0433 64.9517C43.1902 65.0158 43.3576 65.0161 43.5049 64.9524L45.2767 64.1872C51.498 61.5744 55.5454 55.4851 55.5461 48.7375V40.7887C55.5461 40.5744 55.4279 40.3773 55.2389 40.2766ZM53 48.7375C52.9987 55.02 50.2927 59.5688 44.5 62L43.5 62.5L42 62C36.3144 59.5141 34.0065 55.1038 34 48.8984V41.5L43.5 36.5L53 41.446V48.7375Z" fill="#FFCC00"/>
<path d="M40 47.5C39.7919 47.2563 37.7437 47.2919 37.5 47.5C37.2563 47.7078 37.7919 48.2566 38 48.5L40.5 53C40.7046 53.2396 42.1218 53.1012 42.3658 52.9025L49.1707 47.2318C49.4193 47.0298 49.45 46.564 49.2477 46.3154C49.0457 46.0671 48.2486 45.2977 48 45.5L41.5 50.5L40 47.5Z" fill="#FFCC00"/>
</g>
<defs>
<clipPath id="clip0">
<rect width="31" height="31" fill="white" transform="translate(28 34)"/>
</clipPath>
</defs>
</svg>
