<svg width="86" height="86" viewBox="0 0 86 86" fill="none" xmlns="http://www.w3.org/2000/svg">
<path d="M18 41.365V59.865H42.5886M48.8671 27.0379L67.1772 27.0379C67.1772 25.7071 67.1772 59.865 67.1772 59.865H42.5886M42.5886 59.865V41.365" stroke="#201A00" stroke-width="2.5" stroke-linecap="round" stroke-linejoin="round"/>
<path d="M54.9171 35.365C57.1837 35.365 58.9671 35.9067 60.2671 36.99C61.5671 38.0733 62.2171 39.565 62.2171 41.465C62.2171 43.365 61.5671 44.8567 60.2671 45.94C58.9671 47.0233 57.1837 47.565 54.9171 47.565H50.5921V52.865H48.0921V35.365H54.9171ZM54.8421 45.39C56.4254 45.39 57.6337 45.0567 58.4671 44.39C59.3004 43.7067 59.7171 42.7317 59.7171 41.465C59.7171 40.1983 59.3004 39.2317 58.4671 38.565C57.6337 37.8817 56.4254 37.54 54.8421 37.54H50.5921V45.39H54.8421Z" fill="#FFCC00"/>
</svg>
