<svg width="86" height="86" viewBox="0 0 86 86" fill="none" xmlns="http://www.w3.org/2000/svg">
<path d="M13 39.3578V62.9999H44.5M52.5432 21.0483L76 21.0483C76 17.5 76 62.9999 76 62.9999H44.5M44.5 62.9999V39.3578" stroke="#201A00" stroke-width="2.5" stroke-linecap="round" stroke-linejoin="round"/>
<path d="M58.9171 35.365C61.1837 35.365 62.9671 35.9067 64.2671 36.99C65.5671 38.0733 66.2171 39.565 66.2171 41.465C66.2171 43.365 65.5671 44.8567 64.2671 45.94C62.9671 47.0233 61.1837 47.565 58.9171 47.565H54.5921V52.865H52.0921V35.365H58.9171ZM58.8421 45.39C60.4254 45.39 61.6337 45.0567 62.4671 44.39C63.3004 43.7067 63.7171 42.7317 63.7171 41.465C63.7171 40.1983 63.3004 39.2317 62.4671 38.565C61.6337 37.8817 60.4254 37.54 58.8421 37.54H54.5921V45.39H58.8421Z" fill="#FFCC00"/>
</svg>
