<svg width="86" height="86" viewBox="0 0 86 86" fill="none" xmlns="http://www.w3.org/2000/svg">
<path d="M18.6329 38.3985V73H67.8101C67.8101 73 67.8101 38.8421 67.8101 40.1729V38.8421M78 49.0451L67.8101 38.8421M8 49.0451L43 14L67.8101 38.8421" stroke="#201A00" stroke-width="2.5" stroke-linecap="round" stroke-linejoin="round"/>
<path d="M34.5482 59C37.296 55.487 35.4661 52.5 34.5482 50C33.6304 47.5 31.5789 43.8258 34.5482 40M42.5482 59C45.296 55.487 43.4661 52.5 42.5482 50C41.6304 47.5 39.5789 43.8258 42.5482 40M50.5482 59C53.296 55.487 51.4661 52.5 50.5482 50C49.6304 47.5 47.5789 43.8258 50.5482 40" stroke="#FFCC00" stroke-width="2.5" stroke-linecap="round" stroke-linejoin="round"/>
</svg>
